<svg width="897" height="650" viewBox="0 0 897 650" fill="none" xmlns="http://www.w3.org/2000/svg">
<circle cx="765" cy="518" r="132" fill="#5B61EB"/>
<circle cx="619" cy="613" r="15" fill="#F56666"/>
<circle cx="264" cy="23" r="15" fill="#33D9EF"/>
<circle cx="159" cy="70" r="70" fill="#33EFA0"/>
<g clip-path="url(#clip0_1316_2)">
<path d="M817.215 63.4631H0.348785V586.621H817.215V63.4631Z" fill="#E6E6E6"/>
<path d="M793.857 129.08H23.7069V555.671H793.857V129.08Z" fill="white"/>
<path d="M816.867 63H0V97.7035H816.867V63Z" fill="#65DAFF"/>
<path d="M25.7888 87.1743C29.3411 87.1743 32.2209 84.2946 32.2209 80.7423C32.2209 77.19 29.3411 74.3103 25.7888 74.3103C22.2365 74.3103 19.3568 77.19 19.3568 80.7423C19.3568 84.2946 22.2365 87.1743 25.7888 87.1743Z" fill="white"/>
<path d="M50.2032 87.1743C53.7555 87.1743 56.6352 84.2946 56.6352 80.7423C56.6352 77.19 53.7555 74.3103 50.2032 74.3103C46.6509 74.3103 43.7711 77.19 43.7711 80.7423C43.7711 84.2946 46.6509 87.1743 50.2032 87.1743Z" fill="white"/>
<path d="M74.6175 87.1743C78.1698 87.1743 81.0496 84.2946 81.0496 80.7423C81.0496 77.19 78.1698 74.3103 74.6175 74.3103C71.0652 74.3103 68.1855 77.19 68.1855 80.7423C68.1855 84.2946 71.0652 87.1743 74.6175 87.1743Z" fill="white"/>
<path d="M269.095 164.167H118.465V327.587H269.095V164.167Z" fill="#E6E6E6"/>
<path d="M484.095 164.167H333.465V327.587H484.095V164.167Z" fill="#E6E6E6"/>
<path d="M699.095 164.167H548.465V327.587H699.095V164.167Z" fill="#E6E6E6"/>
<path d="M269.095 357.167H118.465V520.587H269.095V357.167Z" fill="#E6E6E6"/>
<path d="M484.095 357.167H333.465V520.587H484.095V357.167Z" fill="#E6E6E6"/>
<path d="M699.095 357.167H548.465V520.587H699.095V357.167Z" fill="#E6E6E6"/>
<path d="M176.975 262.982C191.037 262.982 202.437 251.582 202.437 237.52C202.437 223.457 191.037 212.057 176.975 212.057C162.912 212.057 151.512 223.457 151.512 237.52C151.512 251.582 162.912 262.982 176.975 262.982Z" fill="#FFB9B9"/>
<path d="M167.029 257.014C167.029 257.014 170.211 272.133 170.211 273.724C170.211 275.315 185.33 282.477 185.33 282.477L198.856 280.09L203.631 265.767C203.631 265.767 195.674 253.832 195.674 249.057L167.029 257.014Z" fill="#FFB9B9"/>
<path d="M154.894 217.006C154.894 217.006 162.978 199.49 178.473 203.532C193.968 207.574 202.725 213.637 203.399 219.7C204.073 225.763 203.062 234.858 203.062 234.858C203.062 234.858 201.378 222.395 190.599 225.09C179.82 227.784 162.978 225.763 162.978 225.763L160.283 250.016C160.283 250.016 157.252 245.637 153.883 248.332C150.515 251.026 144.115 222.395 154.894 217.006Z" fill="#2F2E41"/>
<path d="M257.735 321.467L251.375 292.817C248.185 283.267 240.235 275.317 240.235 275.317L200.995 261.517H200.985C200.909 264.986 199.74 268.342 197.644 271.107C195.549 273.872 192.634 275.905 189.315 276.917C177.375 280.887 169.155 267.507 169.155 267.507L135.985 292.817C135.985 292.817 125.645 301.577 126.445 318.287L125.345 327.587H260.795L257.735 321.467Z" fill="#65DAFF"/>
<path d="M391.4 275.671C410.487 275.671 425.96 259.246 425.96 238.984C425.96 218.722 410.487 202.297 391.4 202.297C372.313 202.297 356.839 218.722 356.839 238.984C356.839 259.246 372.313 275.671 391.4 275.671Z" fill="#2F2E41"/>
<path d="M422.064 294.501C432.105 294.501 440.245 286.361 440.245 276.32C440.245 266.279 432.105 258.139 422.064 258.139C412.023 258.139 403.883 266.279 403.883 276.32C403.883 286.361 412.023 294.501 422.064 294.501Z" fill="#2F2E41"/>
<path d="M409.402 251.971L419.142 277.294L394.468 287.684L392.301 282.773L384.727 265.607L409.402 251.971Z" fill="#9F616A"/>
<path d="M389.922 268.528C401.936 268.528 411.675 258.789 411.675 246.776C411.675 234.762 401.936 225.023 389.922 225.023C377.909 225.023 368.17 234.762 368.17 246.776C368.17 258.789 377.909 268.528 389.922 268.528Z" fill="#9F616A"/>
<path d="M372.142 244.39C385.815 235.267 389.902 233.086 405.573 236.61L406.513 213.747L366.016 222.243L372.142 244.39Z" fill="#2F2E41"/>
<path d="M460.045 296.117L459.445 296.187C459.431 296.165 459.414 296.145 459.395 296.127C457.015 293.747 445.655 289.417 437.185 286.417H437.175C431.795 284.507 427.585 283.137 427.585 283.137L417.345 272.607C414.765 275.507 409.315 277.747 404.135 279.327C400.17 280.527 396.136 281.489 392.055 282.207H392.045L389.925 288.977C389.925 288.977 365.895 307.167 363.955 309.107H363.945V309.127C363.79 309.348 363.726 309.62 363.765 309.887V309.937C362.553 315.743 361.93 321.656 361.905 327.587H466.545V321.447C466.545 313.007 460.045 296.117 460.045 296.117Z" fill="#575A89"/>
<path d="M652.465 327.587H600.725L597.875 299.477L597.705 297.767L597.355 294.377L595.925 280.207L594.135 295.427L590.355 327.587H580.955L581.305 317.577L581.655 307.427L581.805 303.337L583.735 247.697C583.587 238.88 586.377 230.264 591.665 223.207C594.601 219.385 598.39 216.301 602.728 214.202C607.067 212.103 611.836 211.047 616.655 211.117C621.572 211.101 626.426 212.224 630.836 214.398C635.246 216.572 639.093 219.738 642.075 223.647C647.541 230.775 650.466 239.525 650.385 248.507L651.275 282.187L652.465 327.587Z" fill="#2F2E41"/>
<path d="M616.656 267.608C629.225 267.608 639.414 257.418 639.414 244.85C639.414 232.281 629.225 222.092 616.656 222.092C604.087 222.092 593.898 232.281 593.898 244.85C593.898 257.418 604.087 267.608 616.656 267.608Z" fill="#FBBEBE"/>
<path d="M605.277 261.105C605.277 261.105 611.779 283.051 605.277 289.553C598.774 296.055 597.149 298.493 597.149 298.493L615.843 323.69L648.354 283.863C648.354 283.863 625.596 277.361 631.286 259.48L605.277 261.105Z" fill="#FBBEBE"/>
<path d="M675.485 327.587H656.285L655.965 324.297L655.675 321.257L664.515 320.147L675.175 318.817L675.295 322.227L675.485 327.587Z" fill="#FBBEBE"/>
<path d="M676.802 322.064C676.802 322.064 673.551 301.745 671.112 293.617C668.674 285.489 666.236 285.489 666.236 285.489H666.235L666.235 285.487C663.365 282.617 656.465 282.107 651.275 282.187C647.635 282.227 644.835 282.547 644.835 282.547L615.845 313.127L601.245 293.717V293.707C599.931 293.809 598.628 294.034 597.355 294.377C596.26 294.656 595.184 295.007 594.135 295.427C589.614 297.359 585.447 300.033 581.805 303.337H581.795C579.695 305.227 578.455 306.617 578.455 306.617C575.24 313.302 572.817 320.34 571.235 327.587H664.135L664.345 323.407V323.399L676.802 322.064Z" fill="#65DAFF"/>
<path d="M597.555 241.192C612.254 233.268 618.292 233.603 636.569 241.192L641.446 229.311C641.443 227.074 640.553 224.929 638.971 223.347C637.389 221.765 635.245 220.875 633.007 220.873H600.304C598.067 220.875 595.922 221.765 594.34 223.347C592.758 224.929 591.868 227.074 591.866 229.311L597.555 241.192Z" fill="#2F2E41"/>
<path d="M191.788 396.721C190.577 396.622 189.365 396.893 188.311 397.498C187.312 398.35 186.509 399.409 185.959 400.602C183.415 405.071 179.97 408.962 175.843 412.029C172.838 414.231 169.016 416.977 169.53 421.037C169.802 422.378 170.297 423.663 170.995 424.839C173.768 430.437 181.335 434.763 180.591 441.15C183.346 436.538 179.661 434.257 182.416 429.645C183.728 427.449 186.007 424.969 187.988 426.349C188.651 426.811 189.087 427.639 189.777 428.044C191.425 429.011 193.178 427.162 194.637 425.853C199.667 421.338 206.82 422.521 213.079 423.928C216.034 424.592 219.279 425.463 221.026 428.287C223.323 432.001 218.844 436.011 217.712 440.209C217.62 440.567 217.616 440.941 217.7 441.301C217.784 441.661 217.954 441.995 218.195 442.275C218.436 442.555 218.742 442.772 219.085 442.908C219.429 443.044 219.8 443.095 220.167 443.056C222.045 442.871 224.27 442.719 224.381 441.895C226.744 441.979 229.639 441.711 230.652 439.251C230.961 438.277 231.125 437.263 231.137 436.242C231.509 432.109 233.263 428.338 234.425 424.405C235.587 420.471 236.092 415.861 234.131 412.374C233.431 411.213 232.566 410.161 231.562 409.251C220.433 398.481 205.802 396.705 191.788 396.721Z" fill="#2F2E41"/>
<path d="M183.011 449.217C183.011 449.217 185.432 469.386 176.557 471C167.683 472.613 184.625 500.043 184.625 500.043L224.963 504.884L215.282 472.613C215.282 472.613 208.828 470.193 212.861 454.058C216.895 437.923 183.011 449.217 183.011 449.217Z" fill="#9F616A"/>
<path d="M201.163 462.529C214.53 462.529 225.366 451.693 225.366 438.326C225.366 424.959 214.53 414.124 201.163 414.124C187.797 414.124 176.961 424.959 176.961 438.326C176.961 451.693 187.797 462.529 201.163 462.529Z" fill="#9F616A"/>
<path d="M159.505 520.587C163.785 503.757 169.695 481.087 169.695 481.087C169.695 481.087 171.995 481.557 175.615 482.087C180.903 482.875 186.232 483.359 191.575 483.537C198.415 483.727 205.615 483.277 211.185 481.347C213.285 480.673 215.246 479.626 216.975 478.257C217.704 477.671 218.355 476.996 218.915 476.247C228.595 463.337 232.625 512.547 232.625 512.547L233.375 520.587L159.505 520.587Z" fill="#65DAFF"/>
<path d="M236.835 572.587C236.515 572.587 236.195 572.597 235.875 572.617L236.335 571.757C236.495 572.027 236.655 572.307 236.835 572.587Z" fill="#FFB8B8"/>
<path d="M192.967 403.054C191.992 402.982 191.015 403.171 190.137 403.603C189.343 404.182 188.689 404.932 188.222 405.797C186.071 409.034 183.266 411.785 179.987 413.873C177.541 415.43 174.43 417.37 174.848 420.24C175.076 421.202 175.48 422.113 176.041 422.927C178.306 426.924 179.208 431.549 178.61 436.104L185.338 426.324C186.406 424.772 188.261 423.019 189.874 423.994C190.414 424.321 190.768 424.906 191.33 425.193C192.672 425.876 194.099 424.57 195.286 423.644C199.381 420.453 205.203 421.289 210.299 422.283C212.704 422.753 215.346 423.368 216.768 425.365C219.131 428.682 216.664 433.475 218.043 437.307C218.429 437.036 218.757 436.691 219.007 436.292C219.257 435.893 219.425 435.447 219.499 434.982C221.423 435.041 223.78 434.852 224.604 433.113C224.855 432.432 224.988 431.713 224.999 430.987C225.302 428.065 226.729 425.401 227.675 422.62C228.621 419.84 229.033 416.582 227.436 414.117C226.852 413.282 226.147 412.538 225.345 411.91C216.286 404.298 204.375 403.043 192.967 403.054Z" fill="#2F2E41"/>
<path d="M190.675 481.887C185.155 475.577 181.875 466.377 181.725 465.967V465.957C181.725 465.957 172.925 460.917 170.505 465.757C168.085 470.597 145.495 482.697 143.075 482.697C143.056 482.706 143.036 482.712 143.015 482.717C142.055 483.037 130.035 487.407 126.945 503.677C126.106 509.276 125.658 514.926 125.605 520.587H191.395C192.075 513.457 192.585 506.787 192.785 501.027C193.075 492.997 192.795 486.757 191.575 483.537C191.38 482.936 191.075 482.376 190.675 481.887Z" fill="#2F2E41"/>
<path d="M247.245 486.427C247.205 486.237 247.175 486.077 247.145 485.927C247.038 485.498 246.855 485.092 246.605 484.727C246.6 484.718 246.597 484.708 246.595 484.697C241.935 477.477 211.965 467.537 211.965 467.537L210.845 471.407C210.845 471.407 210.985 475.227 211.185 481.347C211.385 487.077 211.625 494.817 211.855 503.317C212.015 508.867 212.155 514.747 212.285 520.587H257.115C254.603 508.99 251.306 497.577 247.245 486.427Z" fill="#2F2E41"/>
<path d="M666.685 520.587L670.115 503.827L673.305 502.477L673.325 502.487C673.615 502.597 677.085 504.067 677.085 509.637C677.085 510.757 676.915 514.787 676.635 520.587H666.685Z" fill="#575A89"/>
<path d="M630.658 462.046C646.042 462.046 658.513 449.575 658.513 434.191C658.513 418.807 646.042 406.335 630.658 406.335C615.274 406.335 602.802 418.807 602.802 434.191C602.802 449.575 615.274 462.046 630.658 462.046Z" fill="#FFB8B8"/>
<path d="M648.068 450.44L645.746 498.026L609.766 477.135L614.408 450.44H648.068Z" fill="#FFB8B8"/>
<path d="M658.515 500.347L656.155 520.587H637.265L616.765 481.197L610.985 470.107L608.215 468.297L611.425 467.567L613.955 469.397L642.265 489.907L646.805 476.277L646.925 475.927L648.065 472.497L658.515 500.347Z" fill="#65DAFF"/>
<path d="M613.828 406.916C613.828 406.916 617.31 389.506 637.041 392.988L634.72 394.148C634.72 394.148 653.291 391.827 650.969 402.273C650.969 402.273 666.058 411.558 662.576 422.004C660.528 428.058 658.976 434.269 657.933 440.574L654.451 437.092C654.451 437.092 650.969 413.879 630.077 416.201C614.409 417.942 608.025 425.341 606.393 430.673C605.642 433.18 604.682 435.62 603.525 437.967L602.222 438.253C602.222 438.253 595.258 412.719 613.828 406.916Z" fill="#2F2E41"/>
<path d="M673.325 502.487L673.305 502.477L658.515 488.737V479.457L647.095 470.457L646.925 475.927L645.745 513.117L626.755 486.997L613.955 469.397L611.655 466.247L612.215 463.297L605.125 471.327L579.465 490.577L577.265 492.227C574.742 494.752 572.415 497.467 570.305 500.347C569.615 501.377 566.475 509.577 562.385 520.587H676.635C676.915 514.787 677.085 510.757 677.085 509.637C677.085 504.067 673.615 502.597 673.325 502.487Z" fill="#2F2E41"/>
<path d="M406.488 403.593C387.612 403.593 372.31 420.575 372.31 441.523V468.138H380.496L385.235 458.277L384.05 468.138H436.663L440.971 459.173L439.894 468.138H445.818V447.24C445.818 423.135 428.209 403.593 406.488 403.593Z" fill="#2F2E41"/>
<path d="M378.905 520.587H356.675L356.465 502.457C356.455 502.267 356.455 502.087 356.455 501.897L360.905 496.887L360.985 496.797L377.975 507.557L378.905 520.587Z" fill="#D0CDE1"/>
<path d="M403.464 464.419C416.902 464.419 427.795 453.525 427.795 440.087C427.795 426.65 416.902 415.756 403.464 415.756C390.026 415.756 379.133 426.65 379.133 440.087C379.133 453.525 390.026 464.419 403.464 464.419Z" fill="#FBBEBE"/>
<path d="M389.514 454.686C389.514 454.686 396.651 491.669 393.407 495.562C390.163 499.455 427.795 488.425 427.795 488.425C427.795 488.425 415.467 463.121 421.956 448.847L389.514 454.686Z" fill="#FBBEBE"/>
<path d="M455.525 479.697H455.515C454.942 478.485 453.952 477.519 452.725 476.977C447.955 474.967 443.845 473.427 440.465 472.257C434.487 470.205 427.965 470.408 422.125 472.827C421.555 473.057 420.995 473.307 420.445 473.587C420.445 473.587 396.655 478.117 393.825 477.547C393.615 477.507 393.395 477.477 393.185 477.457C392.758 477.396 392.327 477.359 391.895 477.347C386.36 477.09 380.869 478.452 376.095 481.267C368.285 485.797 356.705 493.827 356.465 501.647L356.245 501.897L356.465 520.587H460.885C461.095 502.677 461.215 489.217 461.215 488.307C461.215 485.477 455.525 479.697 455.525 479.697Z" fill="#65DAFF"/>
<path d="M416.204 414.042C414.559 411.833 412.428 410.033 409.975 408.781C407.523 407.53 404.814 406.86 402.061 406.824H401.39C388.453 406.824 377.965 418.531 377.965 432.973V432.973H382.3L383 427.644L384.026 432.973H409.737L411.891 428.464L411.353 432.973H416.411C418.771 444.694 415.38 456.416 406.237 468.138H414.853L419.161 459.121L418.084 468.138H434.509L437.74 447.399C437.74 431.868 428.716 418.698 416.204 414.042Z" fill="#2F2E41"/>
<path d="M420.926 416.225C427.996 416.225 433.728 410.494 433.728 403.424C433.728 396.354 427.996 390.623 420.926 390.623C413.857 390.623 408.125 396.354 408.125 403.424C408.125 410.494 413.857 416.225 420.926 416.225Z" fill="#2F2E41"/>
<g filter="url(#filter0_d_1316_2)">
<rect x="237" y="512" width="153.203" height="51.0676" rx="25.5338" fill="#3465E1"/>
</g>
<path d="M281.962 545.221C280.34 545.221 278.945 544.897 277.78 544.248C276.629 543.584 275.744 542.654 275.124 541.459C274.505 540.25 274.195 538.826 274.195 537.188C274.195 535.551 274.505 534.135 275.124 532.94C275.744 531.745 276.629 530.823 277.78 530.173C278.945 529.509 280.34 529.178 281.962 529.178C283.01 529.178 283.998 529.34 284.928 529.664C285.872 529.989 286.646 530.454 287.251 531.059L286.322 533.316C285.658 532.755 284.979 532.349 284.286 532.099C283.593 531.833 282.848 531.7 282.051 531.7C280.472 531.7 279.27 532.18 278.444 533.139C277.618 534.083 277.205 535.433 277.205 537.188C277.205 538.944 277.618 540.301 278.444 541.26C279.27 542.219 280.472 542.699 282.051 542.699C282.848 542.699 283.593 542.573 284.286 542.322C284.979 542.057 285.658 541.644 286.322 541.083L287.251 543.34C286.646 543.93 285.872 544.395 284.928 544.734C283.998 545.059 283.01 545.221 281.962 545.221ZM292.632 545.221C291.85 545.221 291.149 545.074 290.529 544.779C289.924 544.469 289.445 544.056 289.091 543.539C288.752 543.023 288.582 542.44 288.582 541.791C288.582 540.995 288.788 540.368 289.202 539.91C289.615 539.438 290.286 539.099 291.215 538.892C292.145 538.686 293.391 538.583 294.955 538.583H295.73V538.118C295.73 537.38 295.567 536.849 295.243 536.524C294.918 536.2 294.372 536.038 293.605 536.038C293 536.038 292.381 536.134 291.746 536.325C291.112 536.502 290.47 536.783 289.821 537.166L289.025 535.285C289.408 535.02 289.858 534.791 290.374 534.599C290.906 534.393 291.459 534.238 292.034 534.135C292.624 534.016 293.177 533.957 293.694 533.957C295.272 533.957 296.445 534.326 297.212 535.064C297.98 535.787 298.363 536.915 298.363 538.45V545H295.774V543.274C295.523 543.879 295.125 544.358 294.579 544.712C294.033 545.052 293.384 545.221 292.632 545.221ZM293.207 543.318C293.93 543.318 294.527 543.067 294.999 542.566C295.486 542.064 295.73 541.43 295.73 540.663V540.176H294.977C293.591 540.176 292.624 540.286 292.078 540.508C291.547 540.714 291.282 541.098 291.282 541.658C291.282 542.145 291.451 542.544 291.791 542.853C292.13 543.163 292.602 543.318 293.207 543.318ZM290.153 532.74L292.587 528.248H295.022L297.456 532.74H295.685L293.804 529.819L291.923 532.74H290.153ZM301.215 545V534.179H303.915V535.838C304.239 535.248 304.689 534.791 305.265 534.466C305.84 534.127 306.504 533.957 307.256 533.957C308.879 533.957 309.941 534.666 310.443 536.082C310.782 535.418 311.269 534.902 311.903 534.533C312.538 534.149 313.261 533.957 314.072 533.957C316.506 533.957 317.723 535.44 317.723 538.405V545H314.957V538.516C314.957 537.69 314.817 537.085 314.537 536.702C314.271 536.318 313.814 536.126 313.165 536.126C312.442 536.126 311.874 536.384 311.461 536.901C311.048 537.402 310.841 538.103 310.841 539.003V545H308.075V538.516C308.075 537.69 307.935 537.085 307.655 536.702C307.389 536.318 306.939 536.126 306.305 536.126C305.582 536.126 305.014 536.384 304.601 536.901C304.188 537.402 303.981 538.103 303.981 539.003V545H301.215ZM325.91 545.221C324.686 545.221 323.631 544.993 322.746 544.535C321.861 544.078 321.175 543.429 320.688 542.588C320.216 541.747 319.98 540.751 319.98 539.6C319.98 538.479 320.208 537.498 320.666 536.657C321.138 535.816 321.779 535.16 322.591 534.688C323.417 534.201 324.354 533.957 325.401 533.957C326.936 533.957 328.145 534.444 329.03 535.418C329.93 536.392 330.38 537.719 330.38 539.401V540.22H322.635C322.842 542.153 323.948 543.119 325.955 543.119C326.559 543.119 327.164 543.03 327.769 542.853C328.374 542.662 328.927 542.367 329.429 541.968L330.203 543.827C329.687 544.255 329.038 544.594 328.256 544.845C327.474 545.096 326.692 545.221 325.91 545.221ZM325.512 535.838C324.701 535.838 324.044 536.089 323.542 536.591C323.041 537.092 322.738 537.771 322.635 538.627H328.079C328.02 537.727 327.769 537.041 327.327 536.569C326.899 536.082 326.294 535.838 325.512 535.838ZM332.571 545V534.179H335.271V536.082C335.802 534.798 336.938 534.09 338.679 533.957L339.52 533.891L339.697 536.237L338.103 536.392C336.289 536.569 335.381 537.498 335.381 539.18V545H332.571ZM344.692 545.221C343.91 545.221 343.209 545.074 342.589 544.779C341.984 544.469 341.505 544.056 341.151 543.539C340.812 543.023 340.642 542.44 340.642 541.791C340.642 540.995 340.849 540.368 341.262 539.91C341.675 539.438 342.346 539.099 343.275 538.892C344.205 538.686 345.451 538.583 347.015 538.583H347.79V538.118C347.79 537.38 347.627 536.849 347.303 536.524C346.978 536.2 346.432 536.038 345.665 536.038C345.06 536.038 344.441 536.134 343.806 536.325C343.172 536.502 342.53 536.783 341.881 537.166L341.085 535.285C341.468 535.02 341.918 534.791 342.434 534.599C342.966 534.393 343.519 534.238 344.094 534.135C344.684 534.016 345.237 533.957 345.754 533.957C347.332 533.957 348.505 534.326 349.272 535.064C350.04 535.787 350.423 536.915 350.423 538.45V545H347.834V543.274C347.583 543.879 347.185 544.358 346.639 544.712C346.093 545.052 345.444 545.221 344.692 545.221ZM345.267 543.318C345.99 543.318 346.587 543.067 347.059 542.566C347.546 542.064 347.79 541.43 347.79 540.663V540.176H347.037C345.651 540.176 344.684 540.286 344.138 540.508C343.607 540.714 343.342 541.098 343.342 541.658C343.342 542.145 343.511 542.544 343.851 542.853C344.19 543.163 344.662 543.318 345.267 543.318Z" fill="white"/>
<rect x="419" y="505" width="169" height="65" rx="32.5" fill="#FFD4E1"/>
<g filter="url(#filter1_d_1316_2)">
<rect x="427" y="512" width="153.203" height="51.0676" rx="25.5338" fill="#E13468"/>
</g>
<path d="M491.081 545.221C489.857 545.221 488.721 545.066 487.673 544.757C486.626 544.432 485.741 543.997 485.018 543.451L485.881 541.216C486.604 541.732 487.393 542.131 488.249 542.411C489.119 542.691 490.063 542.831 491.081 542.831C492.247 542.831 493.095 542.64 493.626 542.256C494.157 541.858 494.423 541.349 494.423 540.729C494.423 540.213 494.231 539.807 493.848 539.512C493.479 539.217 492.837 538.973 491.922 538.782L489.488 538.273C486.715 537.683 485.328 536.259 485.328 534.002C485.328 533.028 485.586 532.18 486.102 531.457C486.619 530.734 487.334 530.173 488.249 529.775C489.164 529.377 490.218 529.178 491.413 529.178C492.476 529.178 493.471 529.34 494.401 529.664C495.33 529.974 496.105 530.417 496.724 530.992L495.861 533.117C494.637 532.084 493.147 531.568 491.391 531.568C490.373 531.568 489.577 531.781 489.001 532.209C488.426 532.637 488.138 533.198 488.138 533.891C488.138 534.422 488.315 534.85 488.669 535.175C489.023 535.484 489.628 535.728 490.484 535.905L492.896 536.414C494.357 536.724 495.441 537.21 496.149 537.874C496.872 538.538 497.233 539.423 497.233 540.53C497.233 541.459 496.983 542.278 496.481 542.986C495.979 543.694 495.264 544.248 494.334 544.646C493.42 545.03 492.335 545.221 491.081 545.221ZM502.962 545.221C502.18 545.221 501.479 545.074 500.859 544.779C500.255 544.469 499.775 544.056 499.421 543.539C499.082 543.023 498.912 542.44 498.912 541.791C498.912 540.995 499.119 540.368 499.532 539.91C499.945 539.438 500.616 539.099 501.545 538.892C502.475 538.686 503.721 538.583 505.285 538.583H506.06V538.118C506.06 537.38 505.898 536.849 505.573 536.524C505.248 536.2 504.703 536.038 503.935 536.038C503.331 536.038 502.711 536.134 502.077 536.325C501.442 536.502 500.8 536.783 500.151 537.166L499.355 535.285C499.738 535.02 500.188 534.791 500.704 534.599C501.236 534.393 501.789 534.238 502.364 534.135C502.954 534.016 503.508 533.957 504.024 533.957C505.602 533.957 506.775 534.326 507.542 535.064C508.31 535.787 508.693 536.915 508.693 538.45V545H506.104V543.274C505.853 543.879 505.455 544.358 504.909 544.712C504.363 545.052 503.714 545.221 502.962 545.221ZM503.537 543.318C504.26 543.318 504.857 543.067 505.33 542.566C505.816 542.064 506.06 541.43 506.06 540.663V540.176H505.307C503.921 540.176 502.954 540.286 502.408 540.508C501.877 540.714 501.612 541.098 501.612 541.658C501.612 542.145 501.781 542.544 502.121 542.853C502.46 543.163 502.932 543.318 503.537 543.318ZM511.324 531.855V529.155H514.422V531.855H511.324ZM511.501 545V534.179H514.267V545H511.501ZM517.141 545V534.179H519.841V536.082C520.372 534.798 521.508 534.09 523.249 533.957L524.09 533.891L524.267 536.237L522.674 536.392C520.859 536.569 519.952 537.498 519.952 539.18V545H517.141Z" fill="white"/>
</g>
<defs>
<filter id="filter0_d_1316_2" x="216.573" y="500.084" width="194.057" height="91.9217" filterUnits="userSpaceOnUse" color-interpolation-filters="sRGB">
<feFlood flood-opacity="0" result="BackgroundImageFix"/>
<feColorMatrix in="SourceAlpha" type="matrix" values="0 0 0 0 0 0 0 0 0 0 0 0 0 0 0 0 0 0 127 0" result="hardAlpha"/>
<feOffset dy="8.51126"/>
<feGaussianBlur stdDeviation="10.2135"/>
<feColorMatrix type="matrix" values="0 0 0 0 0.203922 0 0 0 0 0.396078 0 0 0 0 0.882353 0 0 0 0.3 0"/>
<feBlend mode="normal" in2="BackgroundImageFix" result="effect1_dropShadow_1316_2"/>
<feBlend mode="normal" in="SourceGraphic" in2="effect1_dropShadow_1316_2" result="shape"/>
</filter>
<filter id="filter1_d_1316_2" x="406.573" y="500.084" width="194.057" height="91.9217" filterUnits="userSpaceOnUse" color-interpolation-filters="sRGB">
<feFlood flood-opacity="0" result="BackgroundImageFix"/>
<feColorMatrix in="SourceAlpha" type="matrix" values="0 0 0 0 0 0 0 0 0 0 0 0 0 0 0 0 0 0 127 0" result="hardAlpha"/>
<feOffset dy="8.51126"/>
<feGaussianBlur stdDeviation="10.2135"/>
<feColorMatrix type="matrix" values="0 0 0 0 0.791667 0 0 0 0 0.182743 0 0 0 0 0.365772 0 0 0 0.3 0"/>
<feBlend mode="normal" in2="BackgroundImageFix" result="effect1_dropShadow_1316_2"/>
<feBlend mode="normal" in="SourceGraphic" in2="effect1_dropShadow_1316_2" result="shape"/>
</filter>
<clipPath id="clip0_1316_2">
<rect width="817.215" height="523.621" fill="white" transform="translate(0 63)"/>
</clipPath>
</defs>
</svg>
