<svg width="180" height="180" viewBox="0 0 180 180" fill="none" xmlns="http://www.w3.org/2000/svg">
<g filter="url(#filter0_d_142_2)">
<circle cx="90" cy="80" r="50" fill="#5B72EE"/>
</g>
<path d="M70.625 67.2501C69.4104 67.2501 68.4167 68.2438 68.4167 69.4584V98.1668C68.4167 100.596 70.4042 102.583 72.8333 102.583H101.542C102.756 102.583 103.75 101.59 103.75 100.375C103.75 99.1605 102.756 98.1668 101.542 98.1668H75.0417C73.8271 98.1668 72.8333 97.173 72.8333 95.9584V69.4584C72.8333 68.2438 71.8396 67.2501 70.625 67.2501ZM108.167 58.4167H81.6667C79.2375 58.4167 77.25 60.4042 77.25 62.8334V89.3334C77.25 91.7626 79.2375 93.7501 81.6667 93.7501H108.167C110.596 93.7501 112.583 91.7626 112.583 89.3334V62.8334C112.583 60.4042 110.596 58.4167 108.167 58.4167ZM103.75 78.2917H86.0833C84.8688 78.2917 83.875 77.298 83.875 76.0834C83.875 74.8688 84.8688 73.8751 86.0833 73.8751H103.75C104.965 73.8751 105.958 74.8688 105.958 76.0834C105.958 77.298 104.965 78.2917 103.75 78.2917ZM94.9167 87.1251H86.0833C84.8688 87.1251 83.875 86.1313 83.875 84.9167C83.875 83.7022 84.8688 82.7084 86.0833 82.7084H94.9167C96.1313 82.7084 97.125 83.7022 97.125 84.9167C97.125 86.1313 96.1313 87.1251 94.9167 87.1251ZM103.75 69.4584H86.0833C84.8688 69.4584 83.875 68.4647 83.875 67.2501C83.875 66.0355 84.8688 65.0417 86.0833 65.0417H103.75C104.965 65.0417 105.958 66.0355 105.958 67.2501C105.958 68.4647 104.965 69.4584 103.75 69.4584Z" fill="white"/>
<defs>
<filter id="filter0_d_142_2" x="0" y="0" width="180" height="180" filterUnits="userSpaceOnUse" color-interpolation-filters="sRGB">
<feFlood flood-opacity="0" result="BackgroundImageFix"/>
<feColorMatrix in="SourceAlpha" type="matrix" values="0 0 0 0 0 0 0 0 0 0 0 0 0 0 0 0 0 0 127 0" result="hardAlpha"/>
<feOffset dy="10"/>
<feGaussianBlur stdDeviation="20"/>
<feColorMatrix type="matrix" values="0 0 0 0 0.212 0 0 0 0 0.238778 0 0 0 0 0.533333 0 0 0 0.06 0"/>
<feBlend mode="normal" in2="BackgroundImageFix" result="effect1_dropShadow_142_2"/>
<feBlend mode="normal" in="SourceGraphic" in2="effect1_dropShadow_142_2" result="shape"/>
</filter>
</defs>
</svg>
